<svg version="1.1" id="Capa_1" xmlns="http://www.w3.org/2000/svg" xmlns:xlink="http://www.w3.org/1999/xlink" x="0px" y="0px" viewBox="0 0 20 20" style="enable-background:new 0 0 489.6 489.6;" xml:space="preserve" width="18" height="18"><g><g><path d="M12.923 16.769V17.525c0 0.6 -0.441 1.095 -1.017 1.172l-0.184 0.678c-0.106 0.364 -0.441 0.625 -0.809 0.625h-1.826c-0.392 0 -0.731 -0.261 -0.809 -0.625l-0.184 -0.678c-0.572 -0.078 -1.017 -0.572 -1.017 -1.172v-0.756c0 -0.392 0.315 -0.731 0.731 -0.731h4.404c0.396 0.029 0.711 0.343 0.711 0.731zm0.576 -3.088c-0.131 0.821 -0.854 1.438 -1.683 1.438h-3.632c-0.85 0 -1.56 -0.605 -1.683 -1.438 -0.147 -0.948 -0.592 -1.846 -1.254 -2.533 -1.168 -1.225 -1.822 -2.815 -1.85 -4.485 -0.029 -3.648 2.9 -6.638 6.528 -6.663h0.049c3.656 0 6.63 2.953 6.63 6.581 0 1.699 -0.674 3.366 -1.85 4.571 -0.67 0.69 -1.107 1.565 -1.254 2.529zm0.217 -3.542c0.915 -0.94 1.442 -2.234 1.442 -3.562 0 -2.831 -2.324 -5.131 -5.184 -5.131h-0.041c-2.827 0.02 -5.11 2.353 -5.09 5.2 0.02 1.299 0.535 2.541 1.446 3.497 0.866 0.891 1.45 2.071 1.642 3.317 0.02 0.147 0.143 0.208 0.253 0.208h1.132V9.424l-1.511 -1.511c-0.266 -0.266 -0.266 -0.699 0 -0.968 0.266 -0.266 0.699 -0.266 0.968 0l1.225 1.225 1.225 -1.225c0.266 -0.266 0.699 -0.266 0.968 0 0.266 0.266 0.266 0.699 0 0.968l-1.511 1.511v4.244h1.132c0.135 0 0.237 -0.11 0.253 -0.212 0.196 -1.254 0.764 -2.406 1.65 -3.317z"/></g></g></svg>